<svg width="180" height="50" viewBox="0 0 180 50" fill="none" xmlns="http://www.w3.org/2000/svg">
<path d="M18.136 33.456C16.584 33.456 15.272 33.208 14.2 32.712C13.144 32.216 12.336 31.536 11.776 30.672C11.216 29.792 10.936 28.8 10.936 27.696H14.272C14.272 28.16 14.4 28.616 14.656 29.064C14.912 29.496 15.32 29.848 15.88 30.12C16.456 30.392 17.208 30.528 18.136 30.528C18.968 30.528 19.664 30.408 20.224 30.168C20.784 29.928 21.2 29.616 21.472 29.232C21.744 28.832 21.88 28.384 21.88 27.888C21.88 27.264 21.616 26.768 21.088 26.4C20.56 26.016 19.744 25.776 18.64 25.68L17.104 25.56C15.424 25.416 14.08 24.896 13.072 24C12.08 23.088 11.584 21.888 11.584 20.4C11.584 19.28 11.848 18.32 12.376 17.52C12.904 16.704 13.64 16.08 14.584 15.648C15.544 15.2 16.664 14.976 17.944 14.976C19.272 14.976 20.416 15.208 21.376 15.672C22.336 16.136 23.08 16.792 23.608 17.64C24.136 18.472 24.4 19.456 24.4 20.592H21.064C21.064 20.112 20.944 19.672 20.704 19.272C20.48 18.856 20.136 18.528 19.672 18.288C19.224 18.032 18.648 17.904 17.944 17.904C17.272 17.904 16.712 18.016 16.264 18.24C15.816 18.464 15.48 18.768 15.256 19.152C15.032 19.536 14.92 19.952 14.92 20.4C14.92 20.944 15.12 21.424 15.52 21.84C15.92 22.24 16.552 22.472 17.416 22.536L18.952 22.68C20.2 22.776 21.296 23.04 22.24 23.472C23.184 23.904 23.912 24.488 24.424 25.224C24.952 25.96 25.216 26.848 25.216 27.888C25.216 28.992 24.928 29.968 24.352 30.816C23.776 31.648 22.952 32.296 21.88 32.76C20.824 33.224 19.576 33.456 18.136 33.456ZM33.8999 33.456C32.7799 33.456 31.7959 33.264 30.9479 32.88C30.1159 32.496 29.4199 31.984 28.8599 31.344C28.3159 30.688 27.8999 29.96 27.6119 29.16C27.3399 28.36 27.2039 27.544 27.2039 26.712V26.256C27.2039 25.392 27.3399 24.56 27.6119 23.76C27.8999 22.944 28.3159 22.224 28.8599 21.6C29.4199 20.96 30.1079 20.456 30.9239 20.088C31.7399 19.704 32.6839 19.512 33.7559 19.512C35.1639 19.512 36.3399 19.824 37.2839 20.448C38.2439 21.056 38.9639 21.864 39.4439 22.872C39.9239 23.864 40.1639 24.936 40.1639 26.088V27.288H28.6199V25.248H38.0759L37.0439 26.256C37.0439 25.424 36.9239 24.712 36.6839 24.12C36.4439 23.528 36.0759 23.072 35.5799 22.752C35.0999 22.432 34.4919 22.272 33.7559 22.272C33.0199 22.272 32.3959 22.44 31.8839 22.776C31.3719 23.112 30.9799 23.6 30.7079 24.24C30.4519 24.864 30.3239 25.616 30.3239 26.496C30.3239 27.312 30.4519 28.04 30.7079 28.68C30.9639 29.304 31.3559 29.8 31.8839 30.168C32.4119 30.52 33.0839 30.696 33.8999 30.696C34.7159 30.696 35.3799 30.536 35.8919 30.216C36.4039 29.88 36.7319 29.472 36.8759 28.992H39.9479C39.7559 29.888 39.3879 30.672 38.8439 31.344C38.2999 32.016 37.6039 32.536 36.7559 32.904C35.9239 33.272 34.9719 33.456 33.8999 33.456ZM50.8467 33V29.136H50.2947V24.84C50.2947 24.088 50.1107 23.528 49.7427 23.16C49.3747 22.792 48.8067 22.608 48.0387 22.608C47.6387 22.608 47.1587 22.616 46.5987 22.632C46.0387 22.648 45.4707 22.672 44.8947 22.704C44.3347 22.72 43.8307 22.744 43.3827 22.776V19.944C43.7507 19.912 44.1667 19.88 44.6307 19.848C45.0947 19.816 45.5667 19.8 46.0467 19.8C46.5427 19.784 47.0067 19.776 47.4387 19.776C48.7827 19.776 49.8947 19.952 50.7747 20.304C51.6707 20.656 52.3427 21.208 52.7907 21.96C53.2547 22.712 53.4867 23.696 53.4867 24.912V33H50.8467ZM46.6467 33.336C45.7027 33.336 44.8707 33.168 44.1507 32.832C43.4467 32.496 42.8947 32.016 42.4947 31.392C42.1107 30.768 41.9187 30.016 41.9187 29.136C41.9187 28.176 42.1507 27.392 42.6147 26.784C43.0947 26.176 43.7587 25.72 44.6067 25.416C45.4707 25.112 46.4787 24.96 47.6307 24.96H50.6547V26.952H47.5827C46.8147 26.952 46.2227 27.144 45.8067 27.528C45.4067 27.896 45.2067 28.376 45.2067 28.968C45.2067 29.56 45.4067 30.04 45.8067 30.408C46.2227 30.776 46.8147 30.96 47.5827 30.96C48.0467 30.96 48.4707 30.88 48.8547 30.72C49.2547 30.544 49.5827 30.256 49.8387 29.856C50.1107 29.44 50.2627 28.88 50.2947 28.176L51.1107 29.112C51.0307 30.024 50.8067 30.792 50.4387 31.416C50.0867 32.04 49.5907 32.52 48.9507 32.856C48.3267 33.176 47.5587 33.336 46.6467 33.336ZM57.0601 33V19.968H59.7001V25.488H59.6281C59.6281 23.616 60.0281 22.2 60.8281 21.24C61.6281 20.28 62.8041 19.8 64.3561 19.8H64.8361V22.704H63.9241C62.8041 22.704 61.9321 23.008 61.3081 23.616C60.7001 24.208 60.3961 25.072 60.3961 26.208V33H57.0601ZM72.7581 33.456C71.6221 33.456 70.6381 33.264 69.8061 32.88C68.9901 32.496 68.3021 31.984 67.7421 31.344C67.1981 30.704 66.7901 29.984 66.5181 29.184C66.2461 28.384 66.1101 27.568 66.1101 26.736V26.28C66.1101 25.4 66.2461 24.56 66.5181 23.76C66.8061 22.944 67.2301 22.224 67.7901 21.6C68.3501 20.96 69.0381 20.456 69.8541 20.088C70.6861 19.704 71.6461 19.512 72.7341 19.512C73.8701 19.512 74.8861 19.736 75.7821 20.184C76.6781 20.616 77.3901 21.224 77.9181 22.008C78.4621 22.792 78.7661 23.704 78.8301 24.744H75.5901C75.5101 24.072 75.2221 23.512 74.7261 23.064C74.2461 22.616 73.5821 22.392 72.7341 22.392C71.9981 22.392 71.3821 22.568 70.8861 22.92C70.4061 23.272 70.0461 23.76 69.8061 24.384C69.5661 24.992 69.4461 25.696 69.4461 26.496C69.4461 27.264 69.5581 27.96 69.7821 28.584C70.0221 29.208 70.3821 29.696 70.8621 30.048C71.3581 30.4 71.9901 30.576 72.7581 30.576C73.3341 30.576 73.8301 30.472 74.2461 30.264C74.6621 30.056 74.9901 29.768 75.2301 29.4C75.4861 29.032 75.6461 28.616 75.7101 28.152H78.9501C78.8861 29.208 78.5741 30.136 78.0141 30.936C77.4701 31.72 76.7421 32.336 75.8301 32.784C74.9341 33.232 73.9101 33.456 72.7581 33.456ZM81.6226 33V15.48H84.9586V25.704H84.3826C84.3826 24.392 84.5506 23.28 84.8866 22.368C85.2226 21.456 85.7186 20.76 86.3746 20.28C87.0466 19.8 87.8946 19.56 88.9186 19.56H89.0626C90.5506 19.56 91.6786 20.072 92.4466 21.096C93.2146 22.12 93.5986 23.608 93.5986 25.56V33H90.2626V25.248C90.2626 24.416 90.0226 23.76 89.5426 23.28C89.0786 22.8 88.4626 22.56 87.6946 22.56C86.8786 22.56 86.2146 22.832 85.7026 23.376C85.2066 23.904 84.9586 24.6 84.9586 25.464V33H81.6226ZM109.041 38.16C108.033 38.16 107.153 38.032 106.401 37.776C105.665 37.536 105.089 37.088 104.673 36.432C104.257 35.792 104.049 34.88 104.049 33.696V31.2H107.217V33.912C107.217 34.408 107.353 34.784 107.625 35.04C107.913 35.312 108.297 35.448 108.777 35.448H111.513V38.16H109.041ZM105.681 33.456C104.097 33.456 102.721 33.176 101.553 32.616C100.401 32.056 99.4411 31.328 98.6731 30.432C97.9211 29.52 97.3531 28.544 96.9691 27.504C96.6011 26.448 96.4171 25.432 96.4171 24.456V23.928C96.4171 22.856 96.6091 21.792 96.9931 20.736C97.3771 19.664 97.9531 18.696 98.7211 17.832C99.5051 16.968 100.473 16.28 101.625 15.768C102.777 15.24 104.129 14.976 105.681 14.976C107.217 14.976 108.561 15.24 109.713 15.768C110.865 16.28 111.825 16.968 112.593 17.832C113.377 18.696 113.961 19.664 114.345 20.736C114.729 21.792 114.921 22.856 114.921 23.928V24.456C114.921 25.432 114.729 26.448 114.345 27.504C113.977 28.544 113.409 29.52 112.641 30.432C111.889 31.328 110.929 32.056 109.761 32.616C108.609 33.176 107.249 33.456 105.681 33.456ZM105.681 30.288C106.577 30.288 107.377 30.128 108.081 29.808C108.801 29.488 109.409 29.048 109.905 28.488C110.417 27.912 110.801 27.264 111.057 26.544C111.329 25.808 111.465 25.032 111.465 24.216C111.465 23.336 111.329 22.528 111.057 21.792C110.801 21.056 110.417 20.416 109.905 19.872C109.409 19.328 108.801 18.904 108.081 18.6C107.361 18.296 106.561 18.144 105.681 18.144C104.785 18.144 103.977 18.296 103.257 18.6C102.537 18.904 101.921 19.328 101.409 19.872C100.913 20.416 100.529 21.056 100.257 21.792C100.001 22.528 99.8731 23.336 99.8731 24.216C99.8731 25.032 100.001 25.808 100.257 26.544C100.529 27.264 100.913 27.912 101.409 28.488C101.921 29.048 102.537 29.488 103.257 29.808C103.977 30.128 104.785 30.288 105.681 30.288ZM122.391 33.408C120.887 33.408 119.719 32.912 118.887 31.92C118.071 30.928 117.663 29.456 117.663 27.504V19.944H120.999V27.792C120.999 28.592 121.223 29.232 121.671 29.712C122.119 30.176 122.727 30.408 123.495 30.408C124.263 30.408 124.887 30.16 125.367 29.664C125.863 29.168 126.111 28.496 126.111 27.648V19.944H129.447V33H126.807V27.456H127.071C127.071 28.768 126.903 29.864 126.567 30.744C126.231 31.624 125.727 32.288 125.055 32.736C124.383 33.184 123.543 33.408 122.535 33.408H122.391ZM139.111 33.456C137.991 33.456 137.007 33.264 136.159 32.88C135.327 32.496 134.631 31.984 134.071 31.344C133.527 30.688 133.111 29.96 132.823 29.16C132.551 28.36 132.415 27.544 132.415 26.712V26.256C132.415 25.392 132.551 24.56 132.823 23.76C133.111 22.944 133.527 22.224 134.071 21.6C134.631 20.96 135.319 20.456 136.135 20.088C136.951 19.704 137.895 19.512 138.967 19.512C140.375 19.512 141.551 19.824 142.495 20.448C143.455 21.056 144.175 21.864 144.655 22.872C145.135 23.864 145.375 24.936 145.375 26.088V27.288H133.831V25.248H143.287L142.255 26.256C142.255 25.424 142.135 24.712 141.895 24.12C141.655 23.528 141.287 23.072 140.791 22.752C140.311 22.432 139.703 22.272 138.967 22.272C138.231 22.272 137.607 22.44 137.095 22.776C136.583 23.112 136.191 23.6 135.919 24.24C135.663 24.864 135.535 25.616 135.535 26.496C135.535 27.312 135.663 28.04 135.919 28.68C136.175 29.304 136.567 29.8 137.095 30.168C137.623 30.52 138.295 30.696 139.111 30.696C139.927 30.696 140.591 30.536 141.103 30.216C141.615 29.88 141.943 29.472 142.087 28.992H145.159C144.967 29.888 144.599 30.672 144.055 31.344C143.511 32.016 142.815 32.536 141.967 32.904C141.135 33.272 140.183 33.456 139.111 33.456ZM152.89 33.408C151.098 33.408 149.69 33.032 148.666 32.28C147.658 31.512 147.13 30.456 147.082 29.112H150.082C150.13 29.56 150.378 29.968 150.826 30.336C151.274 30.704 151.978 30.888 152.938 30.888C153.738 30.888 154.37 30.744 154.834 30.456C155.314 30.168 155.554 29.776 155.554 29.28C155.554 28.848 155.37 28.504 155.002 28.248C154.65 27.992 154.042 27.824 153.178 27.744L152.026 27.624C150.57 27.464 149.45 27.048 148.666 26.376C147.882 25.704 147.49 24.808 147.49 23.688C147.49 22.792 147.714 22.04 148.162 21.432C148.61 20.824 149.226 20.368 150.01 20.064C150.81 19.744 151.722 19.584 152.746 19.584C154.346 19.584 155.642 19.936 156.634 20.64C157.626 21.344 158.146 22.376 158.194 23.736H155.194C155.162 23.288 154.938 22.904 154.522 22.584C154.106 22.264 153.506 22.104 152.722 22.104C152.018 22.104 151.474 22.24 151.09 22.512C150.706 22.784 150.514 23.136 150.514 23.568C150.514 23.984 150.666 24.304 150.97 24.528C151.29 24.752 151.802 24.904 152.506 24.984L153.658 25.104C155.194 25.264 156.394 25.688 157.258 26.376C158.138 27.064 158.578 27.992 158.578 29.16C158.578 30.024 158.338 30.776 157.858 31.416C157.394 32.04 156.738 32.528 155.89 32.88C155.042 33.232 154.042 33.408 152.89 33.408ZM166.998 33.168C165.798 33.168 164.806 33.016 164.022 32.712C163.254 32.392 162.678 31.864 162.294 31.128C161.91 30.376 161.718 29.368 161.718 28.104L161.742 16.296H164.862L164.838 28.32C164.838 28.96 165.006 29.456 165.342 29.808C165.694 30.144 166.19 30.312 166.83 30.312H168.87V33.168H166.998ZM159.654 22.416V19.968H168.87V22.416H159.654Z" fill="url(#paint0_linear_364_366)"/>
<defs>
<linearGradient id="paint0_linear_364_366" x1="10" y1="25" x2="170" y2="25" gradientUnits="userSpaceOnUse">
<stop offset="0.17" stop-color="#CA009B" stop-opacity="0.64"/>
<stop offset="0.705" stop-color="#9C75E1" stop-opacity="0.67"/>
</linearGradient>
</defs>
</svg>
